<?xml version="1.0" encoding="iso-8859-1"?>
<!-- Generator: Adobe Illustrator 19.0.0, SVG Export Plug-In . SVG Version: 6.00 Build 0)  -->
<svg version="1.1" id="Layer_1" xmlns="http://www.w3.org/2000/svg" xmlns:xlink="http://www.w3.org/1999/xlink" x="0px" y="0px"
	 viewBox="0 0 512 512" style="enable-background:new 0 0 512 512;" xml:space="preserve">
<g>
	<g>
		<path d="M468.356,217.501c-8.56,0-229.744,0-240.653,0v-23.913c0-24.065-19.579-43.644-43.644-43.644h-71.658
			c-0.363-23.754-19.787-42.97-43.627-42.97h-25.13C19.579,106.974,0,126.553,0,150.619v235.702c0,10.33,8.375,18.705,18.705,18.705
			c18.577,0,454.923,0,474.591,0c10.33,0,18.705-8.375,18.705-18.705V261.146C512,237.08,492.421,217.501,468.356,217.501z
			 M75.008,367.616H37.409v-17.54h37.599V367.616z M75.008,312.667H37.409V150.619c0-3.438,2.797-6.235,6.235-6.235h25.129
			c3.438,0,6.235,2.797,6.235,6.235C75.008,153.61,75.008,310.249,75.008,312.667z M436.991,254.912h31.364
			c3.438,0,6.235,2.797,6.235,6.235v51.52h-37.599V254.912z M112.417,254.911c11.702,0,91.381,0,102.925,0
			c0,21.741,3.09,43.197,27.793,57.755H112.417V254.911z M112.417,367.616v-17.54h251.308c0.001,0,0.001,0,0.003,0h0.003h35.849
			v17.54H112.417z M436.991,367.616v-17.54h37.599v17.54H436.991z"/>
	</g>
</g>
<g>
</g>
<g>
</g>
<g>
</g>
<g>
</g>
<g>
</g>
<g>
</g>
<g>
</g>
<g>
</g>
<g>
</g>
<g>
</g>
<g>
</g>
<g>
</g>
<g>
</g>
<g>
</g>
<g>
</g>
</svg>
